<svg xmlns="http://www.w3.org/2000/svg" viewBox="0 0 1920.33 286.388">
  <defs>
    <style>
      .cls-1 {
        fill: #c280d6;
      }

      .cls-1, .cls-2, .cls-3 {
        opacity: 0.25;
      }

      .cls-2 {
        fill: #4cbee0;
      }

      .cls-3 {
        fill: #4ce07f;
      }
    </style>
  </defs>
  <g id="Footer" transform="translate(0 -793.778)">
    <path id="wave1" class="cls-1" d="M0,955.666c432.627-96.37,607.129,2.627,784.536,33.062,60.511,10.381,121.076,12.849,192.164-2.8,280.975-61.833,300.053-219.823,582.631-73.888s360.516,76.683,360.516,76.683V1080H0Z"/>
    <path id="wave2" class="cls-2" d="M0,1025.263c418.918-128.508,689.564,43.9,839.262,36.043S1221.012,847.343,1358.8,836.154s561.53,230.723,561.53,230.723v54.983L0,1119.695Z" transform="translate(0 -42)"/>
    <path id="wave3" class="cls-3" d="M.5,989.219c579.082-165.586,694.7,116.537,975.635,37.174s216.648-220.869,583.379-94.892,360.234,116.413,360.234,116.413H.5Z" transform="translate(0 32.085)"/>
  </g>
</svg>
