<svg xmlns="http://www.w3.org/2000/svg" viewBox="0 0 50 48.127">
  <defs>
    <style>
      .cls-1 {
        fill: #fff;
        opacity: 0.44;
      }
    </style>
  </defs>
  <g id="Logo" transform="translate(-330 -201.859)">
    <rect id="rect90" class="cls-1" width="50" height="17.376" rx="8.688" transform="translate(330 217.234)"/>
    <path id="rect45" class="cls-1" d="M4.473,1.371,44.841,0A3.685,3.685,0,0,1,48.7,3.864l-.339,9.992a4.34,4.34,0,0,1-4.132,4.132L3.864,19.356A3.685,3.685,0,0,1,0,15.495L.341,5.5A4.34,4.34,0,0,1,4.473,1.371Z" transform="translate(344.625 201.859) rotate(45)"/>
    <rect id="rect" class="cls-1" width="46.722" height="18.595" rx="9.298" transform="translate(364.298 202.562) rotate(90)"/>
    <path id="rect135" class="cls-1" d="M3.864,0,44.231,1.371A4.34,4.34,0,0,1,48.363,5.5l.339,9.992a3.685,3.685,0,0,1-3.861,3.861L4.473,17.988A4.34,4.34,0,0,1,.341,13.856L0,3.864A3.685,3.685,0,0,1,3.864,0Z" transform="translate(379.064 215.547) rotate(135)"/>
  </g>
</svg>
